<svg width="718" height="222" viewBox="0 0 718 222" fill="none" xmlns="http://www.w3.org/2000/svg">
<path d="M136.078 221H115.384V127.566C115.384 116.906 113.085 108.336 108.486 101.856C104.097 95.1674 98.244 90.2553 90.9279 87.1199C83.8209 83.9846 76.1913 82.4169 68.0392 82.4169C60.3051 82.4169 52.78 84.1936 45.464 87.747C38.1479 91.0914 32.1906 96.108 27.5919 102.797C22.9933 109.486 20.6939 117.742 20.6939 127.566V221H0V64.2318H20.6939V83.0439C25.9197 75.9371 32.8177 70.7115 41.3879 67.3671C49.9581 63.8137 59.0509 62.1415 68.6663 62.3505C80.581 62.3505 91.6595 64.7543 101.902 69.5619C112.144 74.3694 120.401 81.5808 126.672 91.1959C132.943 100.811 136.078 112.934 136.078 127.566V221Z" fill="#FBFCFD"/>
<path d="M515.396 19.7096C501.809 19.0825 491.985 20.4411 485.923 23.7855C480.07 26.9209 476.308 31.9375 474.635 38.8353C473.172 45.7331 472.441 54.1986 472.441 64.2318H503.795V82.4169H472.441V221H452.06V82.4169H422.587V64.2318H452.06C452.06 50.4361 453.628 38.6263 456.763 28.8021C460.108 18.769 466.274 11.2441 475.263 6.22748C484.46 1.2109 497.838 -0.774831 515.396 0.27029V19.7096Z" fill="#FBFCFD"/>
<path d="M718 19.7096C704.413 19.0825 694.589 20.4411 688.527 23.7855C682.674 26.9209 678.911 31.9375 677.239 38.8353C675.776 45.7331 675.044 54.1986 675.044 64.2318H706.399V82.4169H675.044V221H654.664V82.4169H625.191V64.2318H654.664C654.664 50.4361 656.232 38.6263 659.367 28.8021C662.712 18.769 668.878 11.2441 677.866 6.22748C687.064 1.2109 700.441 -0.774831 718 0.27029V19.7096Z" fill="#FBFCFD"/>
<circle cx="278.263" cy="23.9756" r="12" fill="#FE3602"/>
<path d="M288.263 221.104H268.263V62.1037H288.263V221.104Z" fill="#FBFCFD"/>
</svg>
