<svg width="718" height="221" viewBox="0 0 718 221" fill="none" xmlns="http://www.w3.org/2000/svg">
<path d="M136.075 221H115.381V127.566C115.381 116.906 113.082 108.336 108.484 101.856C104.094 95.1674 98.2414 90.2553 90.9256 87.1199C83.8188 83.9846 76.1894 82.4169 68.0374 82.4169C60.3035 82.4169 52.7786 84.1936 45.4628 87.747C38.1469 91.0914 32.1898 96.108 27.5912 102.797C22.9927 109.486 20.6934 117.742 20.6934 127.566V221H0V64.2318H20.6934V83.0439C25.919 75.9371 32.8168 70.7115 41.3868 67.3671C49.9568 63.8137 59.0494 62.1415 68.6645 62.3505C80.5789 62.3505 91.6572 64.7543 101.899 69.5619C112.142 74.3694 120.398 81.5808 126.669 91.1959C132.939 100.811 136.075 112.934 136.075 127.566V221Z" fill="#030303"/>
<path d="M515.383 19.7096C501.796 19.0825 491.972 20.4411 485.911 23.7855C480.058 26.9209 476.295 31.9375 474.623 38.8353C473.16 45.7331 472.428 54.1986 472.428 64.2318H503.782V82.4169H472.428V221H452.049V82.4169H422.576V64.2318H452.049C452.049 50.4361 453.616 38.6263 456.752 28.8021C460.096 18.769 466.262 11.2441 475.25 6.22748C484.447 1.2109 497.825 -0.774831 515.383 0.27029V19.7096Z" fill="#030303"/>
<path d="M717.982 19.7096C704.395 19.0825 694.571 20.4411 688.509 23.7855C682.656 26.9209 678.894 31.9375 677.222 38.8353C675.759 45.7331 675.027 54.1986 675.027 64.2318H706.381V82.4169H675.027V221H654.647V82.4169H625.175V64.2318H654.647C654.647 50.4361 656.215 38.6263 659.35 28.8021C662.695 18.769 668.861 11.2441 677.849 6.22748C687.046 1.2109 700.423 -0.774831 717.982 0.27029V19.7096Z" fill="#030303"/>
<circle cx="278.263" cy="25.0396" r="13.064" fill="#FE3602"/>
<path d="M288.14 221H268.387V64.2317H288.14V221Z" fill="#030303"/>
</svg>
